<svg width="33" height="33" viewBox="0 0 33 33" fill="none" xmlns="http://www.w3.org/2000/svg">
<ellipse cx="16.1208" cy="16.5143" rx="16.0524" ry="16.464" fill="#FF0000"/>
<path d="M21.469 20.6025L20.7034 12.6407C20.687 12.4639 20.5257 12.3301 20.337 12.3301H18.7621C18.7402 11.0018 17.5645 9.92865 16.1209 9.92865C14.6772 9.92865 13.5015 11.0018 13.4797 12.3301H11.9048C11.7134 12.3301 11.5548 12.4639 11.5384 12.6407L10.7728 20.6025C10.7728 20.6126 10.7701 20.6227 10.7701 20.6328C10.7701 21.5393 11.6696 22.2767 12.777 22.2767H19.4648C20.5722 22.2767 21.4717 21.5393 21.4717 20.6328C21.4717 20.6227 21.4717 20.6126 21.469 20.6025ZM16.1209 10.6104C17.1572 10.6104 18.002 11.3781 18.0239 12.3301H14.2179C14.2398 11.3781 15.0846 10.6104 16.1209 10.6104ZM19.4648 21.5949H12.777C12.0825 21.5949 11.5192 21.1707 11.5083 20.648L12.2411 13.0144H13.4769V14.0497C13.4769 14.2391 13.641 14.3906 13.846 14.3906C14.0511 14.3906 14.2152 14.2391 14.2152 14.0497V13.0144H18.0239V14.0497C18.0239 14.2391 18.1879 14.3906 18.393 14.3906C18.5981 14.3906 18.7621 14.2391 18.7621 14.0497V13.0144H19.998L20.7335 20.648C20.7225 21.1707 20.1566 21.5949 19.4648 21.5949Z" fill="white"/>
</svg>
